# Made in Blockbench 5.1.4
mtllib model.mtl

o mesh
v 0.25 5.625 0.25
v 0.25 5.625 -0.25
v 0.25 0 0.25
v 0.25 0 -0.25
v -0.25 5.625 0.25
v -0.25 5.625 -0.25
v -0.25 0 0.25
v -0.25 0 -0.25
v 0.3125 5.625 0
v 0.3125 0 0
v -0.3125 0 0
v -0.3125 5.625 0
v 0 5.625 -0.3125
v 0 0 -0.3125
v 0 0 0.3125
v 0 5.625 0.3125
vt 0.007852083333333334 0
vt 0.050801041666666664 0
vt 0.050801041666666664 1
vt 0.007852083333333334 1
vt 0.19006458333333334 1
vt 0.147115625 1
vt 0.147115625 0
vt 0.19006458333333334 0
vt 0.25 1
vt 0.20833333333333334 1
vt 0.20833333333333334 0
vt 0.25 0
vt 0.2604166666666667 0
vt 0.3020833333333333 0
vt 0.3020833333333333 1
vt 0.2604166666666667 1
vt 0.09375 1
vt 0.050801041666666664 1
vt 0.050801041666666664 0
vt 0.09375 0
vt 0.10416666666666667 0
vt 0.147115625 0
vt 0.147115625 1
vt 0.10416666666666667 1
vt 0.3541666666666667 1
vt 0.3125 1
vt 0.3125 0
vt 0.3541666666666667 0
vt 0.3645833333333333 0
vt 0.40625 0
vt 0.40625 1
vt 0.3645833333333333 1
vn 0.9701425001453319 0 0.24253562503633297
vn -0.9701425001453319 0 0.24253562503633297
vn 0.24253562503633297 0 0.9701425001453319
vn 0.24253562503633297 0 -0.9701425001453319
vn 0.9701425001453319 0 -0.24253562503633297
vn -0.9701425001453319 0 -0.24253562503633297
vn -0.24253562503633297 0 -0.9701425001453319
vn -0.24253562503633297 0 0.9701425001453319
usemtl m_4f019b96-b005-c2ff-f873-3d973c8f1032
f 3/1/1 10/2/1 9/3/1 1/4/1
f 5/5/2 12/6/2 11/7/2 7/8/2
f 1/9/3 16/10/3 15/11/3 3/12/3
f 4/13/4 14/14/4 13/15/4 2/16/4
f 2/17/5 9/18/5 10/19/5 4/20/5
f 8/21/6 11/22/6 12/23/6 6/24/6
f 6/25/7 13/26/7 14/27/7 8/28/7
f 7/29/8 15/30/8 16/31/8 5/32/8
o mesh
v 1.5312500000000233 5.206050376383217 -1.4999999999999862
v 0.03125000000001396 7.804126587736527 -1.5000000000000002
v 1.531249999999995 5.206050376383217 1.5000000000000138
v 0.03124999999998565 7.804126587736527 1.4999999999999998
v 1.5000000000000002 5.206050376383212 1.5312500000000002
v 1.5 7.804126587736528 0.031249999999999997
v -1.5 5.206050376383212 1.5312500000000004
v -1.5 7.804126587736527 0.031249999999999997
v -1.5312500000000018 5.206050376383215 1.5000000000000042
v -0.0312499999999995 7.80412658773653 1.5
v -1.5312500000000027 5.206050376383211 -1.4999999999999958
v -0.03125000000000036 7.804126587736525 -1.5
v -1.4999999999999893 5.206050376383215 -1.531250000000016
v -1.5 7.804126587736526 -0.03125000000000896
v 1.50000000000001 5.206050376383216 -1.531249999999998
v 1.5 7.804126587736529 -0.03124999999999074
vt 0 0
vt 1 0
vt 1 1
vt 0 1
vt 0 0
vt 1 0
vt 1 1
vt 0 1
vt 0 0
vt 1 0
vt 1 1
vt 0 1
vt 0 0
vt 1 0
vt 1 1
vt 0 1
vn 0.8660254037844368 0.5000000000000031 8.172591417130129e-15
vn 5.551115123125783e-17 0.5000000000000001 0.8660254037844386
vn -0.8660254037844384 0.5000000000000009 -2.505342589480112e-16
vn 4.9404924595819466e-15 0.5000000000000026 -0.8660254037844373
usemtl m_26752626-b216-9504-757d-120653b6264a
f 19/33/9 17/34/9 18/35/9 20/36/9
f 23/37/10 21/38/10 22/39/10 24/40/10
f 27/41/11 25/42/11 26/43/11 28/44/11
f 31/45/12 29/46/12 30/47/12 32/48/12
o mesh
v 1.5312500000000233 3.956050376383217 -1.4999999999999862
v 0.03125000000001396 6.554126587736527 -1.5000000000000002
v 1.531249999999995 3.956050376383217 1.5000000000000138
v 0.03124999999998565 6.554126587736527 1.4999999999999998
v 1.5000000000000002 3.956050376383212 1.5312500000000002
v 1.5 6.554126587736528 0.031249999999999997
v -1.5 3.956050376383212 1.5312500000000004
v -1.5 6.554126587736527 0.031249999999999997
v -1.5312500000000018 3.9560503763832147 1.5000000000000042
v -0.0312499999999995 6.55412658773653 1.5
v -1.5312500000000027 3.956050376383211 -1.4999999999999958
v -0.03125000000000036 6.554126587736525 -1.5
v -1.4999999999999893 3.9560503763832147 -1.531250000000016
v -1.5 6.554126587736526 -0.03125000000000896
v 1.50000000000001 3.9560503763832164 -1.531249999999998
v 1.5 6.554126587736529 -0.03124999999999074
vt 0 0
vt 1 0
vt 1 1
vt 0 1
vt 0 0
vt 1 0
vt 1 1
vt 0 1
vt 0 0
vt 1 0
vt 1 1
vt 0 1
vt 0 0
vt 1 0
vt 1 1
vt 0 1
vn 0.8660254037844368 0.5000000000000031 8.172591417130129e-15
vn 5.551115123125783e-17 0.5000000000000001 0.8660254037844386
vn -0.8660254037844384 0.5000000000000009 -2.505342589480112e-16
vn 4.9404924595819466e-15 0.5000000000000026 -0.8660254037844373
usemtl m_26752626-b216-9504-757d-120653b6264a
f 35/49/13 33/50/13 34/51/13 36/52/13
f 39/53/14 37/54/14 38/55/14 40/56/14
f 43/57/15 41/58/15 42/59/15 44/60/15
f 47/61/16 45/62/16 46/63/16 48/64/16
o mesh
v 1.5312500000000233 2.706050376383217 -1.4999999999999862
v 0.03125000000001396 5.304126587736527 -1.5000000000000002
v 1.531249999999995 2.706050376383217 1.5000000000000138
v 0.03124999999998565 5.304126587736527 1.4999999999999998
v 1.5000000000000002 2.706050376383212 1.5312500000000002
v 1.5 5.304126587736528 0.031249999999999997
v -1.5 2.706050376383212 1.5312500000000004
v -1.5 5.304126587736527 0.031249999999999997
v -1.5312500000000018 2.7060503763832147 1.5000000000000042
v -0.0312499999999995 5.30412658773653 1.5
v -1.5312500000000027 2.706050376383211 -1.4999999999999958
v -0.03125000000000036 5.304126587736525 -1.5
v -1.4999999999999893 2.7060503763832147 -1.531250000000016
v -1.5 5.304126587736526 -0.03125000000000896
v 1.50000000000001 2.7060503763832164 -1.531249999999998
v 1.5 5.304126587736529 -0.03124999999999074
vt 0 0
vt 1 0
vt 1 1
vt 0 1
vt 0 0
vt 1 0
vt 1 1
vt 0 1
vt 0 0
vt 1 0
vt 1 1
vt 0 1
vt 0 0
vt 1 0
vt 1 1
vt 0 1
vn 0.8660254037844368 0.5000000000000031 8.172591417130129e-15
vn 5.551115123125783e-17 0.5000000000000001 0.8660254037844386
vn -0.8660254037844384 0.5000000000000009 -2.505342589480112e-16
vn 4.9404924595819466e-15 0.5000000000000026 -0.8660254037844373
usemtl m_26752626-b216-9504-757d-120653b6264a
f 51/65/17 49/66/17 50/67/17 52/68/17
f 55/69/18 53/70/18 54/71/18 56/72/18
f 59/73/19 57/74/19 58/75/19 60/76/19
f 63/77/20 61/78/20 62/79/20 64/80/20
o mesh
v 1.5312500000000233 6.456050376383217 -1.4999999999999862
v 0.03125000000001396 9.054126587736528 -1.5000000000000002
v 1.531249999999995 6.456050376383217 1.5000000000000138
v 0.03124999999998565 9.054126587736528 1.4999999999999998
v 1.5000000000000002 6.456050376383212 1.5312500000000002
v 1.5 9.054126587736528 0.031249999999999997
v -1.5 6.456050376383212 1.5312500000000004
v -1.5 9.054126587736526 0.031249999999999997
v -1.5312500000000018 6.456050376383215 1.5000000000000042
v -0.0312499999999995 9.05412658773653 1.5
v -1.5312500000000027 6.456050376383211 -1.4999999999999958
v -0.03125000000000036 9.054126587736524 -1.5
v -1.4999999999999893 6.456050376383215 -1.531250000000016
v -1.5 9.054126587736526 -0.03125000000000896
v 1.50000000000001 6.456050376383216 -1.531249999999998
v 1.5 9.054126587736528 -0.03124999999999074
vt 0 0
vt 1 0
vt 1 1
vt 0 1
vt 0 0
vt 1 0
vt 1 1
vt 0 1
vt 0 0
vt 1 0
vt 1 1
vt 0 1
vt 0 0
vt 1 0
vt 1 1
vt 0 1
vn 0.8660254037844368 0.5000000000000031 8.172591417130129e-15
vn 5.551115123125783e-17 0.5000000000000001 0.8660254037844386
vn -0.8660254037844384 0.5000000000000009 -2.505342589480112e-16
vn 4.9404924595819466e-15 0.5000000000000026 -0.8660254037844373
usemtl m_26752626-b216-9504-757d-120653b6264a
f 67/81/21 65/82/21 66/83/21 68/84/21
f 71/85/22 69/86/22 70/87/22 72/88/22
f 75/89/23 73/90/23 74/91/23 76/92/23
f 79/93/24 77/94/24 78/95/24 80/96/24