# Made in Blockbench 5.1.3
mtllib model.mtl

o trigger
v 0 0.03125 0
v 0.0609225 0.03125 0.1875
v 0.159496875 0.03125 0.11588125
v 0.197149375 0.03125 0
v 0.159496875 0.03125 -0.11588125
v 0.0609225 0.03125 -0.1875
v -0.0609225 0.03125 -0.1875
v -0.159496875 0.03125 -0.11588125
v -0.197149375 0.03125 0
v -0.159496875 0.03125 0.11588125
v -0.0609225 0.03125 0.1875
vt 0.1398375 0.8125
vt 0.189125 0.848309375
vt 0.109375 0.90625
vt 0.189125 0.848309375
vt 0.20795 0.90625
vt 0.109375 0.90625
vt 0.20795 0.90625
vt 0.189125 0.964190625
vt 0.109375 0.90625
vt 0.189125 0.964190625
vt 0.1398375 1
vt 0.109375 0.90625
vt 0.1398375 1
vt 0.0789125 1
vt 0.109375 0.90625
vt 0.0789125 1
vt 0.029625 0.964190625
vt 0.109375 0.90625
vt 0.029625 0.964190625
vt 0.0108 0.90625
vt 0.109375 0.90625
vt 0.0108 0.90625
vt 0.029625 0.848309375
vt 0.109375 0.90625
vt 0.029625 0.848309375
vt 0.0789125 0.8125
vt 0.109375 0.90625
vt 0.0789125 0.8125
vt 0.1398375 0.8125
vt 0.109375 0.90625
vn 0 1 0
vn 0 1 0
vn 0 1 0
vn 0 1 0
vn 0 1 0
vn 0 1 0
vn 0 1 0
vn 0 1 0
vn 0 1 0
vn 0 1 0
usemtl m_32e78d05-3483-8f6d-6b57-dc3431d4eceb
f 2/1/1 3/2/1 1/3/1
f 3/4/2 4/5/2 1/6/2
f 4/7/3 5/8/3 1/9/3
f 5/10/4 6/11/4 1/12/4
f 6/13/5 7/14/5 1/15/5
f 7/16/6 8/17/6 1/18/6
f 8/19/7 9/20/7 1/21/7
f 9/22/8 10/23/8 1/24/8
f 10/25/9 11/26/9 1/27/9
f 11/28/10 2/29/10 1/30/10
o base
v 0.46875 0.015625 0.0625
v 0.46875 0.015625 -0.0625
v -0.46875 0.015625 0.0625
v -0.46875 0.015625 -0.0625
vt 0 0.71875
vt 0.46875 0.71875
vt 0.46875 0.78125
vt 0 0.78125
vn 0 1 0
usemtl m_32e78d05-3483-8f6d-6b57-dc3431d4eceb
f 14/31/11 12/32/11 13/33/11 15/34/11
o bottom
v 0.504314375 0 0
v 0.504314375 0.0625 0
v 0.445626875 0 0
v 0.445626875 0.0625 0
v 0.487130625 0 -0.13052625
v 0.487130625 0.1875 -0.13052625
v 0.4304425 0 -0.115336875
v 0.4304425 0.1875 -0.115336875
v 0.436749375 0 -0.2521575
v 0.436749375 0.0625 -0.2521575
v 0.385924375 0 -0.22281375
v 0.385924375 0.0625 -0.22281375
v 0.356604375 0 -0.356604375
v 0.356604375 0.1875 -0.356604375
v 0.315105625 0 -0.315105625
v 0.315105625 0.1875 -0.315105625
v 0.2521575 0 -0.436749375
v 0.2521575 0.0625 -0.436749375
v 0.22281375 0 -0.385924375
v 0.22281375 0.0625 -0.385924375
v 0.13052625 0 -0.487130625
v 0.13052625 0.1875 -0.487130625
v 0.115336875 0 -0.4304425
v 0.115336875 0.1875 -0.4304425
v 0 0 -0.504314375
v 0 0.0625 -0.504314375
v 0 0 -0.445626875
v 0 0.0625 -0.445626875
v -0.13052625 0 -0.487130625
v -0.13052625 0.1875 -0.487130625
v -0.115336875 0 -0.4304425
v -0.115336875 0.1875 -0.4304425
v -0.2521575 0 -0.436749375
v -0.2521575 0.0625 -0.436749375
v -0.22281375 0 -0.385924375
v -0.22281375 0.0625 -0.385924375
v -0.356604375 0 -0.356604375
v -0.356604375 0.1875 -0.356604375
v -0.315105625 0 -0.315105625
v -0.315105625 0.1875 -0.315105625
v -0.436749375 0 -0.2521575
v -0.436749375 0.0625 -0.2521575
v -0.385924375 0 -0.22281375
v -0.385924375 0.0625 -0.22281375
v -0.487130625 0 -0.13052625
v -0.487130625 0.1875 -0.13052625
v -0.4304425 0 -0.115336875
v -0.4304425 0.1875 -0.115336875
v -0.504314375 0 0
v -0.504314375 0.0625 0
v -0.445626875 0 0
v -0.445626875 0.0625 0
vt 0.25 0.90625
vt 0.315825 0.90625
vt 0.315825 1
vt 0.25 0.9375
vt 0.232675 0.5
vt 0.17450625 0.5625
vt 0.17450625 0.46875
vt 0.232675 0.46875
vt 0.252976875 0.84375
vt 0.34375 0.84375
vt 0.3409728125 0.875
vt 0.2557575 0.87452375
vt 0.315825 0.90625
vt 0.38165 0.90625
vt 0.38165 0.9375
vt 0.315825 1
vt 0.17450625 0.5625
vt 0.1163375 0.5
vt 0.1163375 0.46875
vt 0.17450625 0.46875
vt 0.90625 1
vt 0.81548 1
vt 0.8182571875 0.9707878125
vt 0.9034728125 0.971264375
vt 0.38165 0.90625
vt 0.447475 0.90625
vt 0.447475 1
vt 0.38165 0.9375
vt 0.1163375 0.5
vt 0.05816875 0.5625
vt 0.05816875 0.46875
vt 0.1163375 0.46875
vt 0.721726875 0.25
vt 0.8125 0.25
vt 0.8097228125 0.28125
vt 0.7245075 0.28077375000000004
vt 0.447475 0.90625
vt 0.5133 0.90625
vt 0.5133 0.9375
vt 0.447475 1
vt 0.05816875 0.5625
vt 0 0.5
vt 0 0.46875
vt 0.05816875 0.46875
vt 0.21875 0.1875
vt 0.12798 0.1875
vt 0.1307571875 0.1582878125
vt 0.2159728125 0.15876437499999996
vt 0.25 0.34375
vt 0.315825 0.34375
vt 0.315825 0.4375
vt 0.25 0.375
vt 0.6788375 0.28125
vt 0.62066875 0.34375
vt 0.62066875 0.25
vt 0.6788375 0.25
vt 0.502976875 0.71875
vt 0.59375 0.71875
vt 0.5909728125 0.75
vt 0.5057575 0.74952375
vt 0.315825 0.34375
vt 0.38165 0.34375
vt 0.38165 0.375
vt 0.315825 0.4375
vt 0.62066875 0.34375
vt 0.5625 0.28125
vt 0.5625 0.25
vt 0.62066875 0.25
vt 0.09226 0.1875
vt 0.00149 0.1875
vt 0.0042671875 0.1582878125
vt 0.0894828125 0.15876437499999996
vt 0.583775 0.90625
vt 0.6496 0.90625
vt 0.6496 1
vt 0.583775 0.9375
vt 0.53125 0.28125
vt 0.47308125 0.34375
vt 0.47308125 0.25
vt 0.53125 0.25
vt 0.71875 0.3125
vt 0.809523125 0.3125
vt 0.8067459375 0.34375
vt 0.7215303125 0.34327375000000004
vt 0.6496 0.90625
vt 0.715425 0.90625
vt 0.715425 0.9375
vt 0.6496 1
vt 0.47308125 0.34375
vt 0.4149125 0.28125
vt 0.4149125 0.25
vt 0.47308125 0.25
vt 0.90327 0.75
vt 0.8125 0.75
vt 0.8152771875 0.7207878125
vt 0.9004928125 0.7212643750000001
vt 0.715425 0.90625
vt 0.78125 0.90625
vt 0.78125 1
vt 0.715425 0.9375
vt 0.53125 0.5
vt 0.47308125 0.5625
vt 0.47308125 0.46875
vt 0.53125 0.46875
vt 0.75 0.59375
vt 0.840773125 0.59375
vt 0.8379959375 0.625
vt 0.7527803125 0.62452375
vt 0.021275 0.34375
vt 0.0871 0.34375
vt 0.0871 0.375
vt 0.021275 0.4375
vt 0.47308125 0.5625
vt 0.4149125 0.5
vt 0.4149125 0.46875
vt 0.47308125 0.46875
vt 0.90327 0.9375
vt 0.8125 0.9375
vt 0.8152771875 0.9082878125
vt 0.9004928125 0.908764375
vt 0.0871 0.34375
vt 0.152925 0.34375
vt 0.152925 0.4375
vt 0.0871 0.375
vt 0.4149125 0.5
vt 0.35674375 0.5625
vt 0.35674375 0.46875
vt 0.4149125 0.46875
vt 0.375 0.84375
vt 0.465773125 0.84375
vt 0.4629959375 0.875
vt 0.3777803125 0.87452375
vt 0.152925 0.34375
vt 0.21875 0.34375
vt 0.21875 0.375
vt 0.152925 0.4375
vt 0.35674375 0.5625
vt 0.298575 0.5
vt 0.298575 0.46875
vt 0.35674375 0.46875
vt 0.77976 0.21875
vt 0.68899 0.21875
vt 0.6917671875 0.1895378125
vt 0.7769828125 0.19001437499999996
vn 0.991445212104359 0 -0.13052352812938606
vn -0.9914448754543858 0 0.13052608526741913
vn 0.17901108680276273 0.722230329104229 0.6680856101755903
vn 0.9238797026602001 0 -0.38268302158901774
vn -0.9238803052696852 0 0.382681566755956
vn -0.34582535999945707 0.7222308412229765 -0.5989886746572073
vn 0.7933529954461335 0 -0.6087618784193436
vn -0.7933504194608658 0 0.60876523549006
vn 0.4890723326688475 0.7222302311837304 0.4890723326688475
vn 0.6087618784193436 0 -0.7933529954461335
vn -0.6087652354900602 0 0.7933504194608659
vn -0.5989893199267448 0.7222301276763518 -0.3458257325450152
vn 0.3826830215890176 0 -0.9238797026602
vn -0.382681566755956 0 0.9238803052696855
vn 0.6680852278271814 0.7222307081810821 0.1790109843539101
vn 0.13052352812938606 0 -0.991445212104359
vn -0.13052608526741913 0 0.9914448754543858
vn -0.6916524952238663 0.7222304520377134 0
vn -0.13052352812938606 0 -0.991445212104359
vn 0.13052608526741913 0 0.9914448754543858
vn 0.6680856101755903 0.722230329104229 -0.17901108680276273
vn -0.38268302158901774 0 -0.9238797026602001
vn 0.382681566755956 0 0.9238803052696852
vn -0.5989886746572073 0.7222308412229765 0.34582535999945707
vn -0.6087618784193436 0 -0.7933529954461335
vn 0.60876523549006 0 0.7933504194608658
vn 0.4890723326688475 0.7222302311837304 -0.4890723326688475
vn -0.7933529954461335 0 -0.6087618784193436
vn 0.7933504194608659 0 0.6087652354900602
vn -0.3458257325450152 0.7222301276763518 0.5989893199267448
vn -0.9238797026602 0 -0.3826830215890176
vn 0.9238803052696855 0 0.382681566755956
vn 0.1790109843539101 0.7222307081810821 -0.6680852278271814
vn -0.991445212104359 0 -0.13052352812938606
vn 0.9914448754543858 0 0.13052608526741913
vn 0 0.7222304520377134 0.6916524952238663
usemtl m_32e78d05-3483-8f6d-6b57-dc3431d4eceb
f 16/35/12 20/36/12 21/37/12 17/38/12
f 19/39/13 23/40/13 22/41/13 18/42/13
f 17/43/14 21/44/14 23/45/14 19/46/14
f 20/47/15 24/48/15 25/49/15 21/50/15
f 23/51/16 27/52/16 26/53/16 22/54/16
f 21/55/17 25/56/17 27/57/17 23/58/17
f 24/59/18 28/60/18 29/61/18 25/62/18
f 27/63/19 31/64/19 30/65/19 26/66/19
f 25/67/20 29/68/20 31/69/20 27/70/20
f 28/71/21 32/72/21 33/73/21 29/74/21
f 31/75/22 35/76/22 34/77/22 30/78/22
f 29/79/23 33/80/23 35/81/23 31/82/23
f 32/83/24 36/84/24 37/85/24 33/86/24
f 35/87/25 39/88/25 38/89/25 34/90/25
f 33/91/26 37/92/26 39/93/26 35/94/26
f 36/95/27 40/96/27 41/97/27 37/98/27
f 39/99/28 43/100/28 42/101/28 38/102/28
f 37/103/29 41/104/29 43/105/29 39/106/29
f 40/107/30 44/108/30 45/109/30 41/110/30
f 43/111/31 47/112/31 46/113/31 42/114/31
f 41/115/32 45/116/32 47/117/32 43/118/32
f 44/119/33 48/120/33 49/121/33 45/122/33
f 47/123/34 51/124/34 50/125/34 46/126/34
f 45/127/35 49/128/35 51/129/35 47/130/35
f 48/131/36 52/132/36 53/133/36 49/134/36
f 51/135/37 55/136/37 54/137/37 50/138/37
f 49/139/38 53/140/38 55/141/38 51/142/38
f 52/143/39 56/144/39 57/145/39 53/146/39
f 55/147/40 59/148/40 58/149/40 54/150/40
f 53/151/41 57/152/41 59/153/41 55/154/41
f 56/155/42 60/156/42 61/157/42 57/158/42
f 59/159/43 63/160/43 62/161/43 58/162/43
f 57/163/44 61/164/44 63/165/44 59/166/44
f 60/167/45 64/168/45 65/169/45 61/170/45
f 63/171/46 67/172/46 66/173/46 62/174/46
f 61/175/47 65/176/47 67/177/47 63/178/47
o top
v 0 0 0.504314375
v 0 0.0625 0.504314375
v 0 0 0.445626875
v 0 0.0625 0.445626875
v 0.13052625 0 0.487130625
v 0.13052625 0.1875 0.487130625
v 0.115336875 0 0.4304425
v 0.115336875 0.1875 0.4304425
v 0.2521575 0 0.436749375
v 0.2521575 0.0625 0.436749375
v 0.22281375 0 0.385924375
v 0.22281375 0.0625 0.385924375
v 0.356604375 0 0.356604375
v 0.356604375 0.1875 0.356604375
v 0.315105625 0 0.315105625
v 0.315105625 0.1875 0.315105625
v 0.436749375 0 0.2521575
v 0.436749375 0.0625 0.2521575
v 0.385924375 0 0.22281375
v 0.385924375 0.0625 0.22281375
v 0.487130625 0 0.13052625
v 0.487130625 0.1875 0.13052625
v 0.4304425 0 0.115336875
v 0.4304425 0.1875 0.115336875
v 0.504314375 0 0
v 0.504314375 0.0625 0
v 0.445626875 0 0
v 0.445626875 0.0625 0
v -0.504314375 0 0
v -0.504314375 0.0625 0
v -0.445626875 0 0
v -0.445626875 0.0625 0
v -0.487130625 0 0.13052625
v -0.487130625 0.1875 0.13052625
v -0.4304425 0 0.115336875
v -0.4304425 0.1875 0.115336875
v -0.436749375 0 0.2521575
v -0.436749375 0.0625 0.2521575
v -0.385924375 0 0.22281375
v -0.385924375 0.0625 0.22281375
v -0.356604375 0 0.356604375
v -0.356604375 0.1875 0.356604375
v -0.315105625 0 0.315105625
v -0.315105625 0.1875 0.315105625
v -0.2521575 0 0.436749375
v -0.2521575 0.0625 0.436749375
v -0.22281375 0 0.385924375
v -0.22281375 0.0625 0.385924375
v -0.13052625 0 0.487130625
v -0.13052625 0.1875 0.487130625
v -0.115336875 0 0.4304425
v -0.115336875 0.1875 0.4304425
vt 0.61835 0.5
vt 0.684175 0.5
vt 0.684175 0.59375
vt 0.61835 0.53125
vt 0.125 0.25
vt 0.06683125 0.3125
vt 0.06683125 0.21875
vt 0.125 0.21875
vt 0.3125 0.1875
vt 0.403273125 0.1875
vt 0.4004959375 0.21875
vt 0.3152803125 0.21827375000000004
vt 0.684175 0.5
vt 0.75 0.5
vt 0.75 0.53125
vt 0.684175 0.59375
vt 0.06683125 0.3125
vt 0.0086625 0.25
vt 0.0086625 0.21875
vt 0.06683125 0.21875
vt 0.46577 0.15625
vt 0.375 0.15625
vt 0.3777771875 0.1270378125
vt 0.4629928125 0.12751437499999996
vt 0.33045 0.59375
vt 0.396275 0.59375
vt 0.396275 0.6875
vt 0.33045 0.625
vt 0.78125 0.40625
vt 0.72308125 0.46875
vt 0.72308125 0.375
vt 0.78125 0.375
vt 0.78125 0.53125
vt 0.872023125 0.53125
vt 0.8692459375 0.5625
vt 0.7840303125 0.56202375
vt 0.396275 0.59375
vt 0.4621 0.59375
vt 0.4621 0.625
vt 0.396275 0.6875
vt 0.72308125 0.46875
vt 0.6649125 0.40625
vt 0.6649125 0.375
vt 0.72308125 0.375
vt 0.90327 0.4375
vt 0.8125 0.4375
vt 0.8152771875 0.4082878125
vt 0.9004928125 0.40876437499999996
vt 0.4621 0.59375
vt 0.527925 0.59375
vt 0.527925 0.6875
vt 0.4621 0.625
vt 0.6649125 0.40625
vt 0.60674375 0.46875
vt 0.60674375 0.375
vt 0.6649125 0.375
vt 0.78125 0.78125
vt 0.872023125 0.78125
vt 0.8692459375 0.8125
vt 0.7840303125 0.81202375
vt 0.527925 0.59375
vt 0.59375 0.59375
vt 0.59375 0.625
vt 0.527925 0.6875
vt 0.60674375 0.46875
vt 0.548575 0.40625
vt 0.548575 0.375
vt 0.60674375 0.375
vt 0.90476 0.6875
vt 0.81399 0.6875
vt 0.8167671875 0.6582878125
vt 0.9019828125 0.6587643750000001
vt 0 0.59375
vt 0.065825 0.59375
vt 0.065825 0.6875
vt 0 0.625
vt 0.732675 0.8125
vt 0.67450625 0.875
vt 0.67450625 0.78125
vt 0.732675 0.78125
vt 0.784226875 0.84375
vt 0.875 0.84375
vt 0.8722228125 0.875
vt 0.7870075 0.87452375
vt 0.065825 0.59375
vt 0.13165 0.59375
vt 0.13165 0.625
vt 0.065825 0.6875
vt 0.67450625 0.875
vt 0.6163375 0.8125
vt 0.6163375 0.78125
vt 0.67450625 0.78125
vt 0.90625 0.21875
vt 0.81548 0.21875
vt 0.8182571875 0.1895378125
vt 0.9034728125 0.19001437499999996
vt 0.13165 0.59375
vt 0.197475 0.59375
vt 0.197475 0.6875
vt 0.13165 0.625
vt 0.6163375 0.8125
vt 0.55816875 0.875
vt 0.55816875 0.78125
vt 0.6163375 0.78125
vt 0.565476875 0.1875
vt 0.65625 0.1875
vt 0.6534728125 0.21875
vt 0.5682575 0.21827375000000004
vt 0.197475 0.59375
vt 0.2633 0.59375
vt 0.2633 0.625
vt 0.197475 0.6875
vt 0.55816875 0.875
vt 0.5 0.8125
vt 0.5 0.78125
vt 0.55816875 0.78125
vt 0.34375 0.15625
vt 0.25298 0.15625
vt 0.2557571875 0.1270378125
vt 0.3409728125 0.12751437499999996
vt 0.625 0.65625
vt 0.690825 0.65625
vt 0.690825 0.75
vt 0.625 0.6875
vt 0.2725875 0.25
vt 0.21441875 0.3125
vt 0.21441875 0.21875
vt 0.2725875 0.21875
vt 0.440476875 0.1875
vt 0.53125 0.1875
vt 0.5284728125 0.21875
vt 0.4432575 0.21827375000000004
vt 0.690825 0.65625
vt 0.75665 0.65625
vt 0.75665 0.6875
vt 0.690825 0.75
vt 0.21441875 0.3125
vt 0.15625 0.25
vt 0.15625 0.21875
vt 0.21441875 0.21875
vt 0.90476 0.5
vt 0.81399 0.5
vt 0.8167671875 0.4707878125
vt 0.9019828125 0.47126437499999996
vn 0.13052352812938606 0 0.991445212104359
vn -0.13052608526741913 0 -0.9914448754543858
vn -0.6680856101755903 0.722230329104229 0.17901108680276273
vn 0.38268302158901774 0 0.9238797026602001
vn -0.382681566755956 0 -0.9238803052696852
vn 0.5989886746572073 0.7222308412229765 -0.34582535999945707
vn 0.6087618784193436 0 0.7933529954461335
vn -0.60876523549006 0 -0.7933504194608658
vn -0.4890723326688475 0.7222302311837304 0.4890723326688475
vn 0.7933529954461335 0 0.6087618784193436
vn -0.7933504194608659 0 -0.6087652354900602
vn 0.3458257325450152 0.7222301276763518 -0.5989893199267448
vn 0.9238797026602 0 0.3826830215890176
vn -0.9238803052696855 0 -0.382681566755956
vn -0.1790109843539101 0.7222307081810821 0.6680852278271814
vn 0.991445212104359 0 0.13052352812938606
vn -0.9914448754543858 0 -0.13052608526741913
vn 0 0.7222304520377134 -0.6916524952238663
vn -0.991445212104359 0 0.13052352812938606
vn 0.9914448754543858 0 -0.13052608526741913
vn -0.17901108680276273 0.722230329104229 -0.6680856101755903
vn -0.9238797026602001 0 0.38268302158901774
vn 0.9238803052696852 0 -0.382681566755956
vn 0.34582535999945707 0.7222308412229765 0.5989886746572073
vn -0.7933529954461335 0 0.6087618784193436
vn 0.7933504194608658 0 -0.60876523549006
vn -0.4890723326688475 0.7222302311837304 -0.4890723326688475
vn -0.6087618784193436 0 0.7933529954461335
vn 0.6087652354900602 0 -0.7933504194608659
vn 0.5989893199267448 0.7222301276763518 0.3458257325450152
vn -0.3826830215890176 0 0.9238797026602
vn 0.382681566755956 0 -0.9238803052696855
vn -0.6680852278271814 0.7222307081810821 -0.1790109843539101
vn -0.13052352812938606 0 0.991445212104359
vn 0.13052608526741913 0 -0.9914448754543858
vn 0.6916524952238663 0.7222304520377134 0
usemtl m_32e78d05-3483-8f6d-6b57-dc3431d4eceb
f 68/179/48 72/180/48 73/181/48 69/182/48
f 71/183/49 75/184/49 74/185/49 70/186/49
f 69/187/50 73/188/50 75/189/50 71/190/50
f 72/191/51 76/192/51 77/193/51 73/194/51
f 75/195/52 79/196/52 78/197/52 74/198/52
f 73/199/53 77/200/53 79/201/53 75/202/53
f 76/203/54 80/204/54 81/205/54 77/206/54
f 79/207/55 83/208/55 82/209/55 78/210/55
f 77/211/56 81/212/56 83/213/56 79/214/56
f 80/215/57 84/216/57 85/217/57 81/218/57
f 83/219/58 87/220/58 86/221/58 82/222/58
f 81/223/59 85/224/59 87/225/59 83/226/59
f 84/227/60 88/228/60 89/229/60 85/230/60
f 87/231/61 91/232/61 90/233/61 86/234/61
f 85/235/62 89/236/62 91/237/62 87/238/62
f 88/239/63 92/240/63 93/241/63 89/242/63
f 91/243/64 95/244/64 94/245/64 90/246/64
f 89/247/65 93/248/65 95/249/65 91/250/65
f 96/251/66 100/252/66 101/253/66 97/254/66
f 99/255/67 103/256/67 102/257/67 98/258/67
f 97/259/68 101/260/68 103/261/68 99/262/68
f 100/263/69 104/264/69 105/265/69 101/266/69
f 103/267/70 107/268/70 106/269/70 102/270/70
f 101/271/71 105/272/71 107/273/71 103/274/71
f 104/275/72 108/276/72 109/277/72 105/278/72
f 107/279/73 111/280/73 110/281/73 106/282/73
f 105/283/74 109/284/74 111/285/74 107/286/74
f 108/287/75 112/288/75 113/289/75 109/290/75
f 111/291/76 115/292/76 114/293/76 110/294/76
f 109/295/77 113/296/77 115/297/77 111/298/77
f 112/299/78 116/300/78 117/301/78 113/302/78
f 115/303/79 119/304/79 118/305/79 114/306/79
f 113/307/80 117/308/80 119/309/80 115/310/80
f 116/311/81 68/312/81 69/313/81 117/314/81
f 119/315/82 71/316/82 70/317/82 118/318/82
f 117/319/83 69/320/83 71/321/83 119/322/83