# Made in Blockbench 5.1.3
mtllib model.mtl

o beveled_cuboid
v 0.140625 0.375 0.140625
v 0.140625 0.375 -0.140625
v -0.140625 0.375 0.140625
v -0.140625 0.375 -0.140625
v 0.140625 0.25 0.140625
v 0.140625 0.25 -0.140625
v -0.140625 0.25 0.140625
v -0.140625 0.25 -0.140625
v -0.1875 0.28125 0.140625
v -0.1875 0.34375 0.140625
v -0.1875 0.28125 -0.140625
v -0.1875 0.34375 -0.140625
v 0.1875 0.28125 0.140625
v 0.1875 0.34375 0.140625
v 0.1875 0.28125 -0.140625
v 0.1875 0.34375 -0.140625
v 0.140625 0.28125 -0.1875
v 0.140625 0.34375 -0.1875
v -0.140625 0.28125 -0.1875
v -0.140625 0.34375 -0.1875
v 0.140625 0.28125 0.1875
v 0.140625 0.34375 0.1875
v -0.140625 0.28125 0.1875
v -0.140625 0.34375 0.1875
vt 0.15625 0.5
vt 0 0.5
vt 0 0.46875
vt 0.15625 0.46875
vt 0.6875 0.96875
vt 0.6875 1
vt 0.53125 1
vt 0.53125 0.96875
vt 0.1796875 0.8312062499999999
vt 0.1796875 0.9718312499999999
vt 0.039062500000000014 0.9718312499999999
vt 0.039062500000000014 0.8312062499999999
vt 0.0390625 0.55941875
vt 0.1796875 0.55941875
vt 0.1796875 0.70004375
vt 0.0390625 0.70004375
vt 0.6875 0.90625
vt 0.6875 0.9375
vt 0.53125 0.9375
vt 0.53125 0.90625
vt 0.6875 0.875
vt 0.53125 0.875
vt 0.53125 0.84375
vt 0.6875 0.84375
vt 0.1796875 0.9718312499999999
vt 0.1796875 0.8312062499999999
vt 0.20785625000000002 0.8312062499999999
vt 0.20785625000000002 0.9718312499999999
vt 0.010893749999999994 0.8312062499999999
vt 0.039062499999999986 0.8312062499999999
vt 0.039062500000000014 0.9718312499999999
vt 0.010893750000000021 0.9718312499999999
vt 0.1796875 0.8030375
vt 0.1796875 0.8312062499999999
vt 0.039062500000000014 0.8312062499999999
vt 0.039062500000000014 0.8030375
vt 0.039062500000000014 0.97183125
vt 0.1796875 0.9718312499999999
vt 0.1796875 1
vt 0.039062500000000014 1
vt 0.20785625 0.70004375
vt 0.17968749999999997 0.70004375
vt 0.1796875 0.55941875
vt 0.20785625 0.55941875
vt 0.0390625 0.55941875
vt 0.039062500000000014 0.70004375
vt 0.010893750000000008 0.70004375
vt 0.010893750000000008 0.55941875
vt 0.0390625 0.70004375
vt 0.1796875 0.70004375
vt 0.1796875 0.7282124999999999
vt 0.0390625 0.7282124999999999
vt 0.1796875 0.53125
vt 0.1796875 0.55941875
vt 0.0390625 0.5594187500000001
vt 0.0390625 0.53125
vt 0.1875 0.46875
vt 0.21875 0.46875
vt 0.21875 0.5
vt 0.1875 0.5
vt 0.53125 0.8125
vt 0.53125 0.78125
vt 0.5625 0.78125
vt 0.5625 0.8125
vt 0.53125 0.75
vt 0.53125 0.71875
vt 0.5625 0.71875
vt 0.5625 0.75
vt 0.53125 0.65625
vt 0.5625 0.65625
vt 0.5625 0.6875
vt 0.53125 0.6875
vt 0.1796875 0.70004375
vt 0.20648870714295667 0.7087135432623322
vt 0.1796875 0.728212349885888
vt 0.0390625 0.70004375
vt 0.0390625 0.728212349885888
vt 0.012261292857043332 0.7087135432623322
vt 0.1796875 0.55941875
vt 0.1796875 0.531250150114112
vt 0.20648870714295667 0.5507489567376679
vt 0.0390625 0.5594187500000001
vt 0.012261292857043332 0.550748956737668
vt 0.0390625 0.531250150114112
vt 0.1796875 0.8312062499999999
vt 0.18835301699723117 0.8044063156495893
vt 0.20785357296048962 0.8312062499999999
vt 0.039062499999999986 0.8312062499999999
vt 0.010896427039510354 0.8312062499999999
vt 0.030396983002768843 0.8044063156495893
vt 0.1796875 0.9718312499999999
vt 0.20785357296048967 0.9718312499999999
vt 0.18835301699723117 0.9986311843504107
vt 0.039062500000000014 0.9718312499999999
vt 0.03039698300276887 0.9986311843504107
vt 0.010896427039510381 0.9718312499999999
vn 1 0 0
vn -1 0 0
vn 0 1 0
vn 0 -1 0
vn 0 0 1
vn 0 0 -1
vn 0.5547001962252293 0.8320502943378438 0
vn -0.5547001962252293 0.8320502943378438 0
vn 0 0.8320502943378438 0.5547001962252293
vn 0 0.8320502943378438 -0.5547001962252293
vn 0.5547001962252293 -0.8320502943378438 0
vn -0.5547001962252293 -0.8320502943378438 0
vn 0 -0.8320502943378438 0.5547001962252293
vn 0 -0.8320502943378438 -0.5547001962252293
vn 0.7071067811865476 0 -0.7071067811865476
vn 0.7071067811865476 0 0.7071067811865476
vn -0.7071067811865476 0 -0.7071067811865476
vn -0.7071067811865476 0 0.7071067811865476
vn 0.485071250072666 -0.727606875108999 0.485071250072666
vn -0.485071250072666 -0.727606875108999 0.485071250072666
vn 0.485071250072666 -0.727606875108999 -0.485071250072666
vn -0.485071250072666 -0.727606875108999 -0.485071250072666
vn 0.485071250072666 0.727606875108999 0.485071250072666
vn -0.485071250072666 0.727606875108999 0.485071250072666
vn 0.485071250072666 0.727606875108999 -0.485071250072666
vn -0.485071250072666 0.727606875108999 -0.485071250072666
usemtl m_94df1d9c-1807-f0f2-5e6f-159c94ad75fa
f 16/1/1 14/2/1 13/3/1 15/4/1
f 9/5/2 10/6/2 12/7/2 11/8/2
f 1/9/3 2/10/3 4/11/3 3/12/3
f 8/13/4 6/14/4 5/15/4 7/16/4
f 21/17/5 22/18/5 24/19/5 23/20/5
f 20/21/6 18/22/6 17/23/6 19/24/6
f 2/25/7 1/26/7 14/27/7 16/28/7
f 10/29/8 3/30/8 4/31/8 12/32/8
f 22/33/9 1/34/9 3/35/9 24/36/9
f 4/37/10 2/38/10 18/39/10 20/40/10
f 13/41/11 5/42/11 6/43/11 15/44/11
f 8/45/12 7/46/12 9/47/12 11/48/12
f 7/49/13 5/50/13 21/51/13 23/52/13
f 17/53/14 6/54/14 8/55/14 19/56/14
f 15/57/15 17/58/15 18/59/15 16/60/15
f 22/61/16 21/62/16 13/63/16 14/64/16
f 20/65/17 19/66/17 11/67/17 12/68/17
f 9/69/18 23/70/18 24/71/18 10/72/18
f 5/73/19 13/74/19 21/75/19
f 7/76/20 23/77/20 9/78/20
f 6/79/21 17/80/21 15/81/21
f 8/82/22 11/83/22 19/84/22
f 1/85/23 22/86/23 14/87/23
f 3/88/24 10/89/24 24/90/24
f 2/91/25 16/92/25 18/93/25
f 4/94/26 20/95/26 12/96/26
o cylinder
v 0.05177669529663691 0 0.12499999999999994
v 0.025888347648318467 0.3125 0.062499999999999944
v 0.12500000000000003 0 0.05177669529663685
v 0.06250000000000003 0.3125 0.025888347648318395
v 0.12500000000000003 0 -0.05177669529663692
v 0.06250000000000003 0.3125 -0.025888347648318488
v 0.05177669529663692 0 -0.12500000000000006
v 0.025888347648318474 0.3125 -0.06250000000000004
v -0.05177669529663685 0 -0.12500000000000006
v -0.025888347648318412 0.3125 -0.06250000000000006
v -0.12499999999999994 0 -0.051776695296637004
v -0.06249999999999996 0.3125 -0.02588834764831853
v -0.12499999999999997 0 0.05177669529663687
v -0.06249999999999997 0.3125 0.02588834764831841
v -0.05177669529663695 0 0.12499999999999993
v -0.02588834764831846 0.3125 0.06249999999999993
vt 0.4375 0.8422273730899275
vt 0.5 0.8380354140109482
vt 0.5 0.9979040204605104
vt 0.4633025100720848 1
vt 0.34375 0.8422273730899275
vt 0.40625 0.8380354140109482
vt 0.40625 0.9979040204605104
vt 0.3695525100720848 1
vt 0.4375 0.6234773730899275
vt 0.5 0.6192854140109482
vt 0.5 0.7791540204605104
vt 0.4633025100720848 0.78125
vt 0.25 0.8422273730899275
vt 0.3125 0.8380354140109482
vt 0.3125 0.9979040204605104
vt 0.2758025100720848 1
vt 0.25 0.40472737308992746
vt 0.3125 0.40053541401094817
vt 0.3125 0.5604040204605104
vt 0.2758025100720848 0.5625
vt 0.25 0.6234773730899275
vt 0.3125 0.6192854140109482
vt 0.3125 0.7791540204605104
vt 0.2758025100720848 0.78125
vt 0.34375 0.6234773730899275
vt 0.40625 0.6192854140109482
vt 0.40625 0.7791540204605104
vt 0.3695525100720848 0.78125
vt 0.3565177070054741 0.5625
vt 0.3607096660844533 0.5108949798558302
vt 0.5184822929945259 0.5366974899279151
vt 0.5163863134550363 0.5625
vn 0.6933752452815363 0.19611613513818407 0.6933752452815366
vn 0.9805806756909203 0.19611613513818407 0
vn 0.6933752452815365 0.1961161351381841 -0.6933752452815363
vn 0 0.19611613513818407 -0.9805806756909203
vn -0.6933752452815362 0.19611613513818407 -0.6933752452815366
vn -0.9805806756909201 0.196116135138184 -2.628265567687905e-16
vn -0.6933752452815365 0.19611613513818407 0.6933752452815363
vn -1.3141327838439524e-16 0.19611613513818396 0.9805806756909201
usemtl m_94df1d9c-1807-f0f2-5e6f-159c94ad75fa
f 25/97/27 27/98/27 28/99/27 26/100/27
f 27/101/28 29/102/28 30/103/28 28/104/28
f 29/105/29 31/106/29 32/107/29 30/108/29
f 31/109/30 33/110/30 34/111/30 32/112/30
f 33/113/31 35/114/31 36/115/31 34/116/31
f 35/117/32 37/118/32 38/119/32 36/120/32
f 37/121/33 39/122/33 40/123/33 38/124/33
f 39/125/34 25/126/34 26/127/34 40/128/34