# Made in Blockbench 5.1.3
mtllib model.mtl

o cylinder
v 0.038675 0.75 0.0625
v 0.02305 1 0.03125
v 0.07735 0.75 0
v 0.0461 1 0
v 0.038675 0.75 -0.0625
v 0.02305 1 -0.03125
v -0.038675 0.75 -0.0625
v -0.02305 1 -0.03125
v -0.07735 0.75 0
v -0.0461 1 0
v -0.038675 0.75 0.0625
v -0.02305 1 0.03125
v 0.02305 1.040403125 -0.028346875
v -0.02305 1.040403125 -0.028346875
v -0.0461 1.0625 0
v -0.02305 1.084596875 0.022096875
v 0.02305 1.084596875 0.022096875
v 0.0461 1.0625 0
v -0.007425 1.11316625 -0.037721875
v 0.007425 1.11316625 -0.037721875
v 0 1.106694375 -0.044194375
v 0.01485 1.106694375 -0.044194375
v 0.007425 1.100221875 -0.05066625
v -0.007425 1.100221875 -0.05066625
v -0.01485 1.106694375 -0.044194375
v 0.381944375 0.6527775 0.381944375
v 0.381944375 0.6527775 -0.381944375
v 0.381944375 0.0347225 0.381944375
v 0.381944375 0.0347225 -0.381944375
v -0.381944375 0.6527775 0.381944375
v -0.381944375 0.6527775 -0.381944375
v -0.381944375 0.0347225 0.381944375
v -0.381944375 0.0347225 -0.381944375
v 0.6875 0.375 0
v -0.6875 0.375 0
v 0 0.875 0
v 0 0.375 0.6875
v 0 0.375 -0.6875
v 0.515625 0.75 0
v 0.515625 0.375 0.515625
v 0.515625 0 0
v 0.515625 0.375 -0.515625
v -0.515625 0.375 0.515625
v -0.515625 0.75 0
v -0.515625 0.375 -0.515625
v -0.515625 0 0
v 0 0.75 0.515625
v 0 0.75 -0.515625
v 0 0 0.515625
v 0 0 -0.515625
vt 0.606629375 0.697035625
vt 0.625 0.69735671875
vt 0.61979140625 0.7601284375
vt 0.61011640625 0.7600421875
vt 0.00595625 0.9375
vt 0.0041 0.9352109375
vt 0.0078125 0.9352109375
vt 0.28125 0.46892500000000004
vt 0.29962265625 0.46875
vt 0.295635 0.53172984375
vt 0.28595953125 0.53172984375
vt 0.0041 0.9352109375
vt 0.00595625 0.9329234375
vt 0.0078125 0.9352109375
vt 0.00595625 0.31717656250000004
vt 0.02529375 0.31717656250000004
vt 0.0213875 0.38016249999999996
vt 0.0098625 0.38016249999999996
vt 0.00595625 0.9329234375
vt 0.00966875 0.9329234375
vt 0.0078125 0.9352109375
vt 0.34100296875 0.472741875
vt 0.359375 0.472964375
vt 0.354503125 0.535763125
vt 0.34482796875 0.53572875
vt 0.00966875 0.9329234375
vt 0.011525 0.9352109375
vt 0.0078125 0.9352109375
vt 0.046875 0.30667015625000005
vt 0.06524765625 0.30649515625
vt 0.06126 0.369475
vt 0.05158453125 0.369475
vt 0.011525 0.9352109375
vt 0.00966875 0.9375
vt 0.0078125 0.9352109375
vt 0.24033125 0.3219921875
vt 0.25966875 0.3219921875
vt 0.2557625 0.38497812499999995
vt 0.2442375 0.38497812499999995
vt 0.00966875 0.9375
vt 0.00595625 0.9375
vt 0.0078125 0.9352109375
vt 0.0213875 0.39028906249999995
vt 0.0098625 0.39028906249999995
vt 0.0098625 0.38016249999999996
vt 0.0213875 0.38016249999999996
vt 0.35450765625 0.5513709375
vt 0.34537796875 0.5458396875
vt 0.34482796875 0.53572875
vt 0.35450765625 0.535763125
vt 0.05956734375 0.390625
vt 0.05158453125 0.3851
vt 0.05158453125 0.369475
vt 0.06115171875 0.369475
vt 0.2557625 0.40625
vt 0.2442375 0.40625
vt 0.2442375 0.38497812499999995
vt 0.2557625 0.38497812499999995
vt 0.61975546875 0.775709375
vt 0.61178203125 0.78125
vt 0.61011640625 0.7600421875
vt 0.61975546875 0.760128125
vt 0.29509234375 0.54182984375
vt 0.28595953125 0.54735484375
vt 0.28595953125 0.53172984375
vt 0.29565640625 0.53172984375
vt 0.0245646875 0.9651365625
vt 0.02371296875 0.96875
vt 0.0066853125 0.96875
vt 0.009329375 0.95753234375
vt 0.03042 0.984375
vt 0.03125 0.9934746875
vt 0.0155240625 1
vt 0.0129559375 0.984375
vt 0.30202640625 0.55665703125
vt 0.29959875 0.5583265625
vt 0.2860459375 0.5473026562500001
vt 0.29509234375 0.54182984375
vt 0.01748125 0.40625
vt 0.01376875 0.40625
vt 0.0098625 0.39028906249999995
vt 0.0213875 0.39028906249999995
vt 0.34112609375 0.5625
vt 0.3386790625 0.56085875
vt 0.34547015625 0.54589546875
vt 0.35450765625 0.5513709375
vt 0.04970125 1
vt 0.046875 0.99916921875
vt 0.046875 0.9817004687499999
vt 0.05622421875 0.98427765625
vt 0.127845625 0.39609171875000004
vt 0.1327290625 0.47995328125000003
vt 0.041579375 0.5301218750000001
vt 0 0.43778625000000004
vt 0.411545625 0.71762171875
vt 0.3203959375 0.667453125
vt 0.325279375 0.5835915625
vt 0.453125 0.62528609375
vt 0.484375 0.58881875
vt 0.38204109375 0.5676528125
vt 0.375 0.46635953124999996
vt 0.484375 0.453125
vt 0.01323453125 0.640625
vt 0.1145278125 0.6476660937500001
vt 0.13569375 0.7426528125
vt 0 0.7426528125
vt 0.41948453125 0.328125
vt 0.5207778125 0.33516609374999995
vt 0.54194375 0.43015281250000004
vt 0.40625 0.43015281250000004
vt 0.127845625 0.7710917187499999
vt 0.1327290625 0.85495328125
vt 0.041579375 0.905121875
vt 0 0.81278625
vt 0.599045625 0.90512171875
vt 0.5078959375 0.854953125
vt 0.512779375 0.7710915625
vt 0.640625 0.81278609375
vt 0.578125 0.74506875
vt 0.47579109375 0.7239028125
vt 0.46875 0.62260953125
vt 0.578125 0.609375
vt 0.041579375 0.905121875
vt 0.132729375 0.854953125
vt 0.223879375 0.905121875
vt 0.132729375 1
vt 0.2292459375 0.7176218750000001
vt 0.3203959375 0.667453125
vt 0.4115459375 0.7176218750000001
vt 0.3203959375 0.8125
vt 0.041579375 0.5301218750000001
vt 0.132729375 0.479953125
vt 0.223879375 0.5301218750000001
vt 0.132729375 0.625
vt 0.4167459375 0.905121875
vt 0.5078959375 0.854953125
vt 0.5990459375 0.905121875
vt 0.5078959375 1
vt 0.26816578125 0.890625
vt 0.36945890625 0.8976660937500001
vt 0.390625 0.9926528125
vt 0.25493125 0.9926528125
vt 0.3155121875 0.5835917187499999
vt 0.320395625 0.66745328125
vt 0.2292459375 0.7176218750000001
vt 0.1876665625 0.62528625
vt 0.2238790625 0.90512171875
vt 0.132729375 0.854953125
vt 0.1376128125 0.7710915625
vt 0.2654584375 0.81278609375
vt 0.609375 0.58881875
vt 0.50704109375 0.5676528125
vt 0.5 0.46635953124999996
vt 0.609375 0.453125
vt 0.5030121875 0.7710917187499999
vt 0.507895625 0.85495328125
vt 0.4167459375 0.905121875
vt 0.3751665625 0.81278625
vt 0.2238790625 0.53012171875
vt 0.132729375 0.479953125
vt 0.1376128125 0.3960915625
vt 0.2654584375 0.43778609375
vt 0.390625 0.43256874999999995
vt 0.28829109375 0.4114028125
vt 0.28125 0.31010953124999996
vt 0.390625 0.296875
vt 0.58066578125 0.328125
vt 0.68195890625 0.33516609374999995
vt 0.703125 0.43015281250000004
vt 0.56743125 0.43015281250000004
vn 0.8455957588942434 0.10569946986178043 0.5232546556037578
vn 0 0.7071409219672758 -0.7070726387573423
vn 0.8444092527333454 0.11809063399475836 -0.5225204455913942
vn 0 0.7070726387573418 -0.7071409219672764
vn 0 0.12403473458920848 -0.9922778767136679
vn 0 0.7070726387573418 -0.7071409219672764
vn -0.8455957588942434 0.10569946986178043 -0.5232546556037578
vn 0 0.7070726387573418 -0.7071409219672764
vn -0.8444092527333454 0.11809063399475836 0.5225204455913942
vn 0 0.7071409219672758 -0.7070726387573423
vn 0 0.12403473458920848 0.9922778767136679
vn 0 0.7071409219672758 -0.7070726387573423
vn 0 0.07166919609552484 -0.9974284567481626
vn -0.7568331937511836 0.046843565358811255 -0.6519272944284955
vn -0.6920243896204972 0 0.7218741193382531
vn 0 0.10756916189068329 0.994197603804262
vn 0.7261649334505392 0.07395600799700772 0.6835312709071331
vn 0.7758706258674082 0 -0.6308920445814137
vn 0 0.902366559425078 0.4309693636806995
vn 0.716802850193749 0.6832620419152124 0.13909225726823277
vn 0.7239367230595506 -0.15931930076020398 -0.6712175365789242
vn 0 -0.3495760275563039 -0.9369080002636089
vn -0.6955663167562843 -0.0845227102084126 -0.7134727818586502
vn -0.7239367230595467 0.6712175365789269 0.15931930076020942
vn 0.7375878662946643 0.5460999852956393 -0.3971636256695558
vn 0.7375878662946643 0.5460999852956393 0.3971636256695558
vn 0.8268977415593213 -0.45479460838216684 0.3307597151870304
vn 0.8268977415593213 -0.45479460838216684 -0.3307597151870304
vn -0.8268977415593213 -0.45479460838216684 0.3307597151870304
vn -0.7375878662946643 0.5460999852956393 0.3971636256695558
vn -0.7375878662946643 0.5460999852956393 -0.3971636256695558
vn -0.8268977415593213 -0.45479460838216684 -0.3307597151870304
vn -0.3425806341947275 0.8748011306288285 0.3425806341947275
vn 0.3425806341947275 0.8748011306288285 0.3425806341947275
vn 0.3425806341947275 0.8748011306288285 -0.3425806341947275
vn -0.3425806341947275 0.8748011306288285 -0.3425806341947275
vn 0.3307597151870304 -0.45479460838216684 0.8268977415593213
vn 0.3971636256695558 0.5460999852956393 0.7375878662946643
vn -0.3971636256695558 0.5460999852956393 0.7375878662946643
vn -0.3307597151870304 -0.45479460838216684 0.8268977415593213
vn -0.3971636256695558 0.5460999852956393 -0.7375878662946643
vn 0.3971636256695558 0.5460999852956393 -0.7375878662946643
vn 0.3307597151870304 -0.45479460838216684 -0.8268977415593213
vn -0.3307597151870304 -0.45479460838216684 -0.8268977415593213
usemtl m_8273daa7-e65d-86e5-2e90-ddfe9bc167a2
f 1/1/1 3/2/1 4/3/1 2/4/1
f 20/5/2 22/6/2 21/7/2
f 3/8/3 5/9/3 6/10/3 4/11/3
f 22/12/4 23/13/4 21/14/4
f 5/15/5 7/16/5 8/17/5 6/18/5
f 23/19/6 24/20/6 21/21/6
f 7/22/7 9/23/7 10/24/7 8/25/7
f 24/26/8 25/27/8 21/28/8
f 9/29/9 11/30/9 12/31/9 10/32/9
f 25/33/10 19/34/10 21/35/10
f 11/36/11 1/37/11 2/38/11 12/39/11
f 19/40/12 20/41/12 21/42/12
f 14/43/13 13/44/13 6/45/13 8/46/13
f 15/47/14 14/48/14 8/49/14 10/50/14
f 16/51/15 15/52/15 10/53/15 12/54/15
f 17/55/16 16/56/16 12/57/16 2/58/16
f 18/59/17 17/60/17 2/61/17 4/62/17
f 13/63/18 18/64/18 4/65/18 6/66/18
f 20/67/19 19/68/19 16/69/19 17/70/19
f 22/71/20 20/72/20 17/73/20 18/74/20
f 23/75/21 22/76/21 18/77/21 13/78/21
f 24/79/22 23/80/22 13/81/22 14/82/22
f 25/83/23 24/84/23 14/85/23 15/86/23
f 19/87/24 25/88/24 15/89/24 16/90/24
f 42/91/25 27/92/25 39/93/25 34/94/25
f 39/95/26 26/96/26 40/97/26 34/98/26
f 40/99/27 28/100/27 41/101/27 34/102/27
f 41/103/28 29/104/28 42/105/28 34/106/28
f 46/107/29 32/108/29 43/109/29 35/110/29
f 43/111/30 30/112/30 44/113/30 35/114/30
f 44/115/31 31/116/31 45/117/31 35/118/31
f 45/119/32 33/120/32 46/121/32 35/122/32
f 44/123/33 30/124/33 47/125/33 36/126/33
f 47/127/34 26/128/34 39/129/34 36/130/34
f 39/131/35 27/132/35 48/133/35 36/134/35
f 48/135/36 31/136/36 44/137/36 36/138/36
f 49/139/37 28/140/37 40/141/37 37/142/37
f 40/143/38 26/144/38 47/145/38 37/146/38
f 47/147/39 30/148/39 43/149/39 37/150/39
f 43/151/40 32/152/40 49/153/40 37/154/40
f 45/155/41 31/156/41 48/157/41 38/158/41
f 48/159/42 27/160/42 42/161/42 38/162/42
f 42/163/43 29/164/43 50/165/43 38/166/43
f 50/167/44 33/168/44 45/169/44 38/170/44