# Made in Blockbench 5.1.3
mtllib model.mtl

o mesh
v 0.25 0.5625 0.5625
v 0.3125 0.5625 -0.5
v 0.1875 0 0.5625
v 0.25 0 -0.5
v 0.75 0.5 0.5625
v 0.8125 0.5 -0.5
v 0.75 0 0.5625
v 0.8125 0 -0.5
v 0.78125 0.5625 0.03125
v 0.90625 0 0.03125
v 0.25 0.5 0.03125
v 0.25 0 0.03125
v -0.25 0.5 0.5
v -0.3125 0.5 -0.5
v -0.25 0 0.5
v -0.25 0 -0.5
v -0.6875 0.5 0.5
v -0.8125 0.5 -0.5
v -0.75 0 0.5
v -0.8125 0 -0.5
v -0.71875 0.5 0
v -0.90625 0 0
v -0.1875 0.5625 0
v -0.1875 0 0
v -0.1251775 0.9375 0.38835375
v -0.24754625000000002 0.9375 -0.478625625
v -0.1251775 0.5 0.38835375
v -0.24754625000000002 0.4375 -0.478625625
v -0.614015 0.875 0.452710625
v -0.75142625 1 -0.4753275
v -0.675980625 0.5 0.46086875
v -0.75142625 0.5 -0.4753275
v -0.651738125 0.96875 -0.0153875
v -0.77566875 0.5 0.000928125
v -0.19044062499999997 0.5 -0.076118125
v -0.12847562499999998 1.03125 -0.08427625
v 0.165481875 0.984375 0.571565625
v 0.20910125000000002 1.0625 -0.4899825
v 0.2279225 0.5 0.574291875
v 0.271541875 0.5 -0.48725625
v -0.268875 0.984375 0.490041875
v -0.2904225 1.0625 -0.511791875
v -0.27160125 0.5 0.5524825
v -0.2904225 0.5 -0.511791875
v 0.187291875 1.0859375 0.040791875
v -0.281011875 1.1484375 0.020345
v -0.281011875 0.5 0.020345
v 0.2497325 0.5 0.043518125
v 0.2279225 0.484375 0.699291875
v 0.25791125000000004 0.625 0.01244625
v 0.23064875 0 0.63685125
v 0.25791125000000004 0 0.01244625
v -0.331315625 0.546875 0.612315625
v -0.30405375 0.625 -0.012089375
v -0.20916125000000002 0 0.68020875
v -0.30405375 0 -0.012089375
v 0.1251775 0.9375 0.45085375
v 0.25570375 1 -0.540590625
v 0.1251775 0.5 0.45085375
v 0.25570375 0.5625 -0.540590625
v 0.675980625 0.9375 0.52336875
v 0.68946125 1 -0.483485625
v 0.675980625 0.5 0.52336875
v 0.68946125 0.5 -0.483485625
v 0.128475625 1.03125 -0.05302625
v 0.74468625 1.03125 0.028099375
v 0.80665125 0.5625 0.0362575
v 0.190440625 0.5 -0.044868125
v 0.25 0.015625 -0.5
v -0.25 0.015625 -0.5
v 0.25791125000000004 0.015625 0.01244625
v -0.30405375 0.015625 -0.012089375
vt 0.4765625 1
vt 0.41015625 0.9921875
vt 0.41015625 0.9296875
vt 0.4765625 0.9296875
vt 0.291822265625 0.791096796875
vt 0.360939453125 0.787349609375
vt 0.360429296875 0.859375
vt 0.295131328125 0.85213296875
vt 0.13577125 0.907403125
vt 0.08856015625 0.954912578125
vt 0.044625 0.904509375
vt 0.09434390625 0.862381484375
vt 0.5859375 0.6245135937499999
vt 0.5859375 0.6875
vt 0.515625 0.686531015625
vt 0.524346171875 0.61676140625
vt 0.5546875 0.929254765625
vt 0.5546875 1
vt 0.491276953125 0.999137265625
vt 0.484375 0.93701953125
vt 0.426927734375 0.851371875
vt 0.360429296875 0.859375
vt 0.360939453125 0.78734921875
vt 0.426927734375 0.79035859375
vt 0 0.9549125
vt 0.044625 0.904509375
vt 0.08856015625 0.9549125
vt 0.04135078125 1
vt 0.34375 0.9296875
vt 0.41015625 0.9296875
vt 0.41015625 0.9921875
vt 0.34375 1
vt 0.4921875 0.765625
vt 0.4277640625 0.7734375
vt 0.4277640625 0.703125
vt 0.49029296875 0.703125
vt 0.078125 0.55595703125
vt 0.14147546875 0.5504534375
vt 0.1429371875 0.6171875
vt 0.08320046875 0.614379921875
vt 0.21322390625 0.715515625
vt 0.27681296875 0.715515625
vt 0.28905125 0.78125
vt 0.224741875 0.7765093750000001
vt 0.5859375 0.5390625
vt 0.5859375 0.6015625
vt 0.53125 0.6015625
vt 0.5234375 0.5390625
vt 0.3203125 0.4765625
vt 0.2578125 0.4765625
vt 0.25 0.4140625
vt 0.3203125 0.4140625
vt 0.2055590625 0.6171875
vt 0.1429371875 0.6171875
vt 0.14147546875 0.550453125
vt 0.2050715625 0.55591953125
vt 0.34927609375 0.761216640625
vt 0.28905125 0.78125
vt 0.276812890625 0.715515234375
vt 0.33865078125 0.70794875
vt 0.364778125 0.703125
vt 0.4277640625 0.703125
vt 0.4277640625 0.7734375
vt 0.364778125 0.765625
vt 0.32860484375 0.546447890625
vt 0.27731171875 0.5590062499999999
vt 0.2773796875 0.492142421875
vt 0.327685859375 0.484375
vt 0.440936796875 0.78317421875
vt 0.500545390625 0.78317421875
vt 0.497721171875 0.84375
vt 0.440936796875 0.8436296875
vt 0.09375 0.8282859375
vt 0.1456390625 0.80029609375
vt 0.1814125 0.856275
vt 0.1342046875 0.875
vt 0.357312578125 0.5703125
vt 0.36452921875 0.621217734375
vt 0.291375390625 0.6308490625000001
vt 0.294494375 0.571992265625
vt 0.0703125 0.8125
vt 0.0703125 0.8671875
vt 0.0078125 0.859375
vt 0 0.8125
vt 0.2387059375 0.4765625
vt 0.17523734375 0.4765625
vt 0.1675440625 0.4140625
vt 0.23101265625 0.4140625
vt 0.556847890625 0.834407734375
vt 0.497721171875 0.84375
vt 0.5005453125 0.783174375
vt 0.559063203125 0.787154140625
vt 0.303836328125 0.68834125
vt 0.291375390625 0.6308490625000001
vt 0.364528515625 0.6212178125000001
vt 0.372687109375 0.6792771875
vt 0.21875 0.492142421875
vt 0.2773796875 0.492142421875
vt 0.27731171875 0.559006484375
vt 0.21875 0.546454921875
vt 0.226994453125 0.81690390625
vt 0.1814125 0.856275
vt 0.145639296875 0.800296484375
vt 0.19361953125 0.76450671875
vt 0.136743359375 0.707990625
vt 0.070341015625 0.71093671875
vt 0.070283984375 0.6372796875
vt 0.136686328125 0.63724609375
vt 0.0037859375 0.7236328125
vt 0.07031328125 0.7236328125
vt 0.07031328125 0.8046875
vt 0.0037859375 0.7939453125
vt 0.2434096875 0.905585234375
vt 0.19921671875 0.956460234375
vt 0.15311671875 0.919460234375
vt 0.19423625 0.867878203125
vt 0.070279296875 0.4874421875
vt 0.067552734375 0.5537890624999999
vt 0.001209765625 0.5508921875
vt 0.000033203125 0.484375
vt 0.4926640625 0.40625
vt 0.48493046875 0.46680703125
vt 0.4296875 0.46680703125
vt 0.4307921875 0.4064109375
vt 0.0703125 0.4765625
vt 0.0078125 0.4765625
vt 0 0.40625
vt 0.0703125 0.40625
vt 0.109375 0.971007890625
vt 0.15311671875 0.919460234375
vt 0.19921703125 0.95646046875
vt 0.155614921875 1
vt 0.1290453125 0.7841796875
vt 0.07031328125 0.8046875
vt 0.07031328125 0.7236328125
vt 0.1368390625 0.7236328125
vt 0.002386328125 0.617409375
vt 0.001209765625 0.5508921875
vt 0.067552734375 0.5537890624999999
vt 0.064826953125 0.6201359375
vt 0.003881640625 0.6373128125
vt 0.070283984375 0.6372796875
vt 0.070341015625 0.7109375
vt 0.003931640625 0.6983471875
vt 0.515625 0.5546875
vt 0.4296875 0.537109375
vt 0.4375 0.4765625
vt 0.515625 0.4765625
vt 0.345855 0.4609375
vt 0.415595 0.47163953125
vt 0.421875 0.5501215625
vt 0.345855 0.5464837499999999
vt 0.0873446875 0.5390625
vt 0.078125 0.46875
vt 0.1640625 0.46875
vt 0.1640625 0.538537578125
vt 0.515625 0.4140625
vt 0.576674140625 0.4140625
vt 0.583421875 0.484375
vt 0.516624921875 0.46683273437499995
vt 0.5703125 0.7734375
vt 0.5 0.7734375
vt 0.5 0.6953125
vt 0.5703125 0.6953125
vt 0.566661484375 0.9066234375
vt 0.503689609375 0.9184218749999999
vt 0.504489609375 0.8515625
vt 0.566661484375 0.85230625
vt 0.375 0.5691159375
vt 0.438355625 0.57373125
vt 0.4402603125 0.6328125
vt 0.377799453125 0.6232615625
vt 0.25846328125 1
vt 0.2580296875 0.9364109375
vt 0.3357203125 0.9364109375
vt 0.3279078125 1
vt 0.152224375 0.6250003125
vt 0.214724375 0.6250003125
vt 0.214724375 0.703083125
vt 0.152224375 0.69409640625
vt 0.4140625 0.921875
vt 0.34375 0.921875
vt 0.34375 0.8671875
vt 0.4140625 0.8671875
vt 0.1328125 0.40625
vt 0.1328125 0.4609375
vt 0.078125 0.4609375
vt 0.078125 0.3984375
vt 0.3279078125 0.8737890625
vt 0.3357203125 0.9364109375
vt 0.2580296875 0.9364109375
vt 0.2732203125 0.8737890625
vt 0.5045775 0.62887421875
vt 0.4402603125 0.6328125
vt 0.438355625 0.57373125
vt 0.5045775 0.5668898437500001
vt 0.277463125 0.679412890625
vt 0.214724375 0.703083125
vt 0.214724375 0.625
vt 0.27630828125 0.6257815625
vt 0.441894140625 0.85857234375
vt 0.504489609375 0.8515625
vt 0.503689609375 0.9184218749999999
vt 0.441151015625 0.912880546875
vt 0.6015625 0.93131
vt 0.671752890625 0.927159453125
vt 0.671752890625 0.991222578125
vt 0.6092603125 0.9921875
vn -1 0 0
vn 0.9382795743321262 0.20850657207380582 0.27596458068591945
vn -0.11614110996571109 0.9871994347085443 0.10930927996772809
vn 0 0 1
vn 0 0 -1
vn 0.97569070226292 0.21682015605842667 0.03188531706741569
vn -0.11622522301311031 0.9879143956114376 0.10255166736450909
vn -1 0 0
vn 0.9701425001453319 0 -0.24253562503633297
vn -0.922224668326776 0.345834250622541 -0.1729171253112705
vn -0.11681321874769343 0.9929123593553941 0.021902478515192517
vn 0 0 1
vn 0 0 -1
vn -0.9347299805391776 0.3505237427021916 0.0584206237836986
vn -0.11614652051503473 0.9872454243777952 0.10888736298284506
vn 0.9922778767136677 0 0.12403473458920847
vn 0.9581569277490547 -0.1157794891225159 -0.26178313869503145
vn -0.9660339130142425 0.2536936382421617 -0.04917333445929972
vn -0.10638103789040612 0.990213360844227 0.09033589974612043
vn 0.019834548853299244 -0.9883867457521801 0.1506593226229339
vn 0.1305265853819755 0 0.9914448096129819
vn -0.006545317042684471 0 -0.9999785791829798
vn -0.9576152970404539 0.257661719446565 0.12877647768891323
vn 0 -1 0
vn 0.9834900221010646 -0.11683639557167094 -0.13819056804813967
vn -0.09106959732114134 0.9766916320393236 0.19437022495260853
vn 0.9937022307813995 0.10606239672452682 0.03614753852089599
vn -0.9998436642227523 0 0.01768183004161512
vn 0.1374496778639722 0.9774540269632801 -0.16028478164928062
vn 0 -1 0
vn -0.18443671224647 -0.018244801586996522 0.9826750360066974
vn 0.04361878265722411 -1.266403725672847e-7 -0.9990482479837929
vn 0.12162914626197412 0.9739542649597276 0.19136206663375116
vn -0.9996663193635287 0 0.025831181354624245
vn 0 -1 0
vn 0.9935208076400345 0.10606482528898004 0.040824718280866645
vn 0.9990481948976558 -9.970285380974417e-9 0.0436199985297507
vn -0.971606838049023 -0.22579971811003294 -0.07067276390385092
vn 0.07747755998460411 0.9760624910449375 0.2032221475971149
vn -0.166276722068276 -0.12699246157438132 0.9778675607675658
vn 0.04361886075782918 0 -0.9990482445738991
vn -0.9928234820769952 -0.11623482699068768 -0.02812469432643121
vn 0.9532337019116184 0.1307522395376898 0.2724873600660229
vn -0.024054460823256216 0.9828721976306344 0.18271186616974275
vn 0.09919806156711625 -0.9949820043601546 0.013059692981699475
vn -0.13052688741665064 0 0.9914447698491939
vn 0.13052561205383292 0 -0.9914449377539695
vn 0.008141999308566203 0.9980525768721245 -0.06184465737775389
vn 0.9851483214445302 0.12824155216178038 -0.11417919711647097
vn 0.08743641372295038 -0.9911907484855534 0.09947750334582019
vn -0.9826429701418519 -0.11682829720881764 -0.14409698887238337
vn 0 1 0
usemtl m_ebc7b39b-72b7-d9a3-807f-81635fe8fff4
f 1/1/1 11/2/1 12/3/1 3/4/1
f 7/5/2 10/6/2 9/7/2 5/8/2
f 5/9/3 9/10/3 11/11/3 1/12/3
f 5/13/4 1/14/4 3/15/4 7/16/4
f 4/17/5 2/18/5 6/19/5 8/20/5
f 6/21/6 9/22/6 10/23/6 8/24/6
f 2/25/7 11/26/7 9/27/7 6/28/7
f 4/29/8 12/30/8 11/31/8 2/32/8
f 14/33/9 23/34/9 24/35/9 16/36/9
f 20/37/10 22/38/10 21/39/10 18/40/10
f 18/41/11 21/42/11 23/43/11 14/44/11
f 15/45/12 13/46/12 17/47/12 19/48/12
f 18/49/13 14/50/13 16/51/13 20/52/13
f 17/53/14 21/54/14 22/55/14 19/56/14
f 13/57/15 23/58/15 21/59/15 17/60/15
f 15/61/16 24/62/16 23/63/16 13/64/16
f 26/65/17 36/66/17 35/67/17 28/68/17
f 32/69/18 34/70/18 33/71/18 30/72/18
f 30/73/19 33/74/19 36/75/19 26/76/19
f 28/77/20 35/78/20 34/79/20 32/80/20
f 27/81/21 25/82/21 29/83/21 31/84/21
f 30/85/22 26/86/22 28/87/22 32/88/22
f 29/89/23 33/90/23 34/91/23 31/92/23
f 31/93/24 34/94/24 35/95/24 27/96/24
f 27/97/25 35/98/25 36/99/25 25/100/25
f 25/101/26 36/102/26 33/103/26 29/104/26
f 38/105/27 45/106/27 48/107/27 40/108/27
f 44/109/28 47/110/28 46/111/28 42/112/28
f 42/113/29 46/114/29 45/115/29 38/116/29
f 40/117/30 48/118/30 47/119/30 44/120/30
f 39/121/31 37/122/31 41/123/31 43/124/31
f 42/125/32 38/126/32 40/127/32 44/128/32
f 37/129/33 45/130/33 46/131/33 41/132/33
f 41/133/34 46/134/34 47/135/34 43/136/34
f 43/137/35 47/138/35 48/139/35 39/140/35
f 39/141/36 48/142/36 45/143/36 37/144/36
f 50/145/37 49/146/37 51/147/37 52/148/37
f 55/149/38 53/150/38 54/151/38 56/152/38
f 53/153/39 49/154/39 50/155/39 54/156/39
f 51/157/40 49/158/40 53/159/40 55/160/40
f 54/161/41 50/162/41 52/163/41 56/164/41
f 57/165/42 65/166/42 68/167/42 59/168/42
f 63/169/43 67/170/43 66/171/43 61/172/43
f 61/173/44 66/174/44 65/175/44 57/176/44
f 59/177/45 68/178/45 67/179/45 63/180/45
f 61/181/46 57/182/46 59/183/46 63/184/46
f 60/185/47 58/186/47 62/187/47 64/188/47
f 58/189/48 65/190/48 66/191/48 62/192/48
f 62/193/49 66/194/49 67/195/49 64/196/49
f 64/197/50 67/198/50 68/199/50 60/200/50
f 60/201/51 68/202/51 65/203/51 58/204/51
f 72/205/52 71/206/52 69/207/52 70/208/52