# Made in Blockbench 5.1.4
mtllib model.mtl

o mesh
v 0.5 1 0.0625
v 0.5 1 -0.0625
v 0.5 0 0.0625
v 0.5 0 -0.0625
v -0.5 1 0.0625
v -0.5 1 -0.0625
v -0.5 0 0.0625
v -0.5 0 -0.0625
vt 0.375 0.625
vt 0.3333333333333333 0.625
vt 0.3333333333333333 0.29166666666666663
vt 0.375 0.29166666666666663
vt 0.4166666666666667 0.29166666666666663
vt 0.4166666666666667 0.625
vt 0.375 0.625
vt 0.375 0.29166666666666663
vt 0.3333333333333333 0.6666666666666667
vt 0.3333333333333333 1
vt 0 1
vt 0 0.6666666666666667
vt 0.3333333333333333 0.6666666666666667
vt 0 0.6666666666666667
vt 0 0.33333333333333337
vt 0.3333333333333333 0.33333333333333337
vn 1 0 0
vn -1 0 0
vn 0 0 1
vn 0 0 -1
usemtl m_2176c3ff-c6a7-b656-1b33-b49e8b65c9af
f 2/1/1 1/2/1 3/3/1 4/4/1
f 7/5/2 5/6/2 6/7/2 8/8/2
f 3/9/3 1/10/3 5/11/3 7/12/3
f 6/13/4 2/14/4 4/15/4 8/16/4
o cylinder
v -1.1102230246251565e-16 1 0.06250000000000008
v -1.1102230246251565e-16 1 -0.0625
v 0.13397459621556118 1.5089745962155612 0.06250000000000011
v 0.13397459621556118 1.5089745962155612 -0.06249999999999997
v 0.3660254037844385 1.3749999999999998 0.06250000000000008
v 0.3660254037844385 1.3749999999999998 -0.06249999999999997
v 0.4999999999999998 1.1429491924311224 0.06250000000000008
v 0.4999999999999998 1.1429491924311226 -0.0625
v 0.4999999999999998 0.9999999999999998 0.06250000000000008
v 0.4999999999999998 0.9999999999999998 -0.0625
v -0.5 0.9999999999999999 0.06250000000000008
v -0.5 1 -0.0625
v -0.5000000000000001 1.1429491924311224 0.06250000000000008
v -0.5000000000000001 1.1429491924311224 -0.0625
v -0.3660254037844388 1.3749999999999996 0.06250000000000008
v -0.3660254037844388 1.3749999999999998 -0.06249999999999997
v -0.1339745962155614 1.5089745962155612 0.06250000000000011
v -0.1339745962155614 1.5089745962155612 -0.06249999999999997
vt 0.6220083333333334 0.9553416666666666
vt 0.5446583333333334 1
vt 0.5 0.8303416666666666
vt 0.5967416666666666 0.5833333333333333
vt 0.6860583333333334 0.5833333333333333
vt 0.6860583333333334 0.625
vt 0.5967416666666666 0.625
vt 0.4553416666666667 0.8125
vt 0.37799166666666667 0.7678416666666666
vt 0.5 0.6428416666666668
vt 0.6666666666666666 0.8779916666666667
vt 0.6220083333333334 0.9553416666666666
vt 0.5 0.8303416666666666
vt 0.4166666666666667 0.5833333333333333
vt 0.4166666666666667 0.49401874999999995
vt 0.4583333333333333 0.49401874999999995
vt 0.4583333333333333 0.5833333333333333
vt 0.37799166666666667 0.7678416666666666
vt 0.3333333333333333 0.6904916666666667
vt 0.5 0.6428416666666668
vt 0.6666666666666666 0.8303416666666666
vt 0.6666666666666666 0.8779916666666667
vt 0.5 0.8303416666666666
vt 0.4166666666666667 0.49401874999999995
vt 0.4166666666666667 0.44636875
vt 0.4583333333333333 0.44636875
vt 0.4583333333333333 0.49401874999999995
vt 0.3333333333333333 0.6904916666666667
vt 0.3333333333333333 0.6428416666666668
vt 0.5 0.6428416666666668
vt 0.3333333333333333 0.8779916666666667
vt 0.3333333333333333 0.8303416666666666
vt 0.5 0.8303416666666666
vt 0.5 0.4375
vt 0.5 0.48514999999999997
vt 0.4583333333333333 0.48514999999999997
vt 0.4583333333333333 0.4375
vt 0.6666666666666666 0.6428416666666668
vt 0.6666666666666666 0.6904916666666667
vt 0.5 0.6428416666666668
vt 0.37799166666666667 0.9553416666666666
vt 0.3333333333333333 0.8779916666666667
vt 0.5 0.8303416666666666
vt 0.5 0.48514999999999997
vt 0.5 0.5744645833333333
vt 0.4583333333333333 0.5744645833333333
vt 0.4583333333333333 0.48514999999999997
vt 0.6666666666666666 0.6904916666666667
vt 0.6220083333333334 0.7678416666666666
vt 0.5 0.6428416666666668
vt 0.4553416666666667 1
vt 0.37799166666666667 0.9553416666666666
vt 0.5 0.8303416666666666
vt 0.4181083333333333 0.5833333333333333
vt 0.507425 0.5833333333333333
vt 0.507425 0.625
vt 0.4181083333333333 0.625
vt 0.6220083333333334 0.7678416666666666
vt 0.5446583333333334 0.8125
vt 0.5 0.6428416666666668
vt 0.5446583333333334 1
vt 0.4553416666666667 1
vt 0.5 0.8303416666666666
vt 0.507425 0.5833333333333333
vt 0.5967416666666666 0.5833333333333333
vt 0.5967416666666666 0.625
vt 0.507425 0.625
vt 0.5446583333333334 0.8125
vt 0.4553416666666667 0.8125
vt 0.5 0.6428416666666668
vn 7.649976649125996e-17 -7.466895445167654e-17 1
vn 0.4999999999999998 0.8660254037844388 4.1434087356338754e-16
vn 2.733073420333676e-17 4.7338220248339775e-17 -1
vn 0 0 1
vn 0.8660254037844388 0.4999999999999998 2.0717043678169372e-16
vn -2.93514294062752e-17 1.0266385177523001e-16 -1
vn 0 0 1
vn 1 0 0
vn 0 0 -1
vn 0 0 1
vn -1 -7.766556814653561e-16 -3.4490440790751167e-31
vn 0 0 -1
vn 0 0 1
vn -0.8660254037844388 0.4999999999999996 5.179260919542342e-16
vn 2.935142940627513e-17 1.0266385177522997e-16 -1
vn -7.649976649125989e-17 -7.466895445167653e-17 1
vn -0.4999999999999999 0.8660254037844387 7.250965287359276e-16
vn -2.733073420333676e-17 4.7338220248339775e-17 -1
vn 0 -5.4532339770989013e-17 1
vn 0 1 8.881784197001246e-16
vn 0 5.4532339770988995e-17 -1
usemtl m_2176c3ff-c6a7-b656-1b33-b49e8b65c9af
f 13/17/5 11/18/5 9/19/5
f 11/20/6 13/21/6 14/22/6 12/23/6
f 12/24/7 14/25/7 10/26/7
f 15/27/8 13/28/8 9/29/8
f 13/30/9 15/31/9 16/32/9 14/33/9
f 14/34/10 16/35/10 10/36/10
f 17/37/11 15/38/11 9/39/11
f 15/40/12 17/41/12 18/42/12 16/43/12
f 16/44/13 18/45/13 10/46/13
f 21/47/14 19/48/14 9/49/14
f 19/50/15 21/51/15 22/52/15 20/53/15
f 20/54/16 22/55/16 10/56/16
f 23/57/17 21/58/17 9/59/17
f 21/60/18 23/61/18 24/62/18 22/63/18
f 22/64/19 24/65/19 10/66/19
f 25/67/20 23/68/20 9/69/20
f 23/70/21 25/71/21 26/72/21 24/73/21
f 24/74/22 26/75/22 10/76/22
f 11/77/23 25/78/23 9/79/23
f 25/80/24 11/81/24 12/82/24 26/83/24
f 26/84/25 12/85/25 10/86/25