# Made in Blockbench 5.1.3
mtllib model.mtl

o bush
v 0.5 0.875 0.625
v 0.5 0.875 -0.625
v 0.5 -0.125 0.625
v 0.5 -0.125 -0.625
v -0.5 0.875 0.625
v -0.5 0.875 -0.625
v -0.5 -0.125 0.625
v -0.5 -0.125 -0.625
v 0.625 0.75 0.625
v 0.625 0.75 -0.625
v -0.625 0.75 0.625
v -0.625 0.75 -0.625
v 0.625 0.875 0.5
v 0.625 0.875 -0.5
v 0.625 -0.125 0.5
v 0.625 -0.125 -0.5
v -0.625 0.875 0.5
v -0.625 0.875 -0.5
v -0.625 -0.125 0.5
v -0.625 -0.125 -0.5
vt 0.640625 0.734375
vt 0.328125 0.734375
vt 0.328125 0.484375
vt 0.640625 0.484375
vt 0.640625 0.484375
vt 0.640625 0.734375
vt 0.328125 0.734375
vt 0.328125 0.484375
vt 0.3125 1
vt 0 1
vt 0 0.6875
vt 0.3125 0.6875
vt 0.640625 0.484375
vt 0.640625 0.734375
vt 0.328125 0.734375
vt 0.328125 0.484375
vt 0.640625 0.734375
vt 0.328125 0.734375
vt 0.328125 0.484375
vt 0.640625 0.484375
vn 1 0 0
vn -1 0 0
vn 0 1 0
vn 0 0 1
vn 0 0 -1
usemtl m_38f816bd-57a7-e951-e52a-3d4aefbb9fc6
f 2/1/1 1/2/1 3/3/1 4/4/1
f 7/5/2 5/6/2 6/7/2 8/8/2
f 11/9/3 9/10/3 10/11/3 12/12/3
f 15/13/4 13/14/4 17/15/4 19/16/4
f 18/17/5 14/18/5 16/19/5 20/20/5